# xmcd
#
# Track frame offsets:
#	150
#	17496
#	40166
#	64269
#	76624
#	95942
#	113804
#	136173
#	152453
#	170213
#	189021
#	203015
#	221841
#	254069
#	278789
#	301635
#	324365
#
# Disc length: 4612 seconds
#
# Revision: 7
# Processed by: cddbd v1.5.2PL0 Copyright (c) Steve Scherf et al.
# Submitted via: audiograbber 1.83.01
#
DISCID=e2120211
DTITLE=Various Artist - AUDIO's Audiophile Vol. 9 - Cover Me [24-Karat-Echtgold-CD]
DYEAR=1999
DGENRE=Misc
TTITLE0=Angelique Kidjo - Voodoo Child
TTITLE1=Rahsaan Patterson - Street Life
TTITLE2=Diane Reeves - In Your Eyes
TTITLE3=Sara K. - Oh Well
TTITLE4=Roger Daltrey - Say It Ain't So Joe
TTITLE5=Livingston Taylor - Baker Street
TTITLE6=Sidsel Endresen and Bugge Wesseltoft - Fifty Ways To Leave Your Lover
TTITLE7=José Feliciano - Light My Fire
TTITLE8=Jesse Cook featuring Holly Cole - Fragile
TTITLE9=Paul Young - Wherever I Lay My Hat (That's My Home)
TTITLE10=Be Mine Or Run - Baby You Can Drive My Car
TTITLE11=Katy Moffatt - Mr. Banker
TTITLE12=Abraxas Pool - Jingo
TTITLE13=The Yuri Honing Trio - Walking On The Moon
TTITLE14=Indigo Girls - Midnight Train To Georgia
TTITLE15=Cassandra Wilson - Harvest Moon
TTITLE16=Apocalyptica - Nothing Else Matters
EXTD=
EXTT0=
EXTT1=
EXTT2=
EXTT3=
EXTT4=
EXTT5=
EXTT6=
EXTT7=
EXTT8=
EXTT9=
EXTT10=
EXTT11=
EXTT12=
EXTT13=
EXTT14=
EXTT15=
EXTT16=
PLAYORDER=
